<svg xmlns="http://www.w3.org/2000/svg" version="1.1" xmlns:xlink="http://www.w3.org/1999/xlink" width="1000" height="1000"><metadata><rdf:RDF xmlns:rdf="http://www.w3.org/1999/02/22-rdf-syntax-ns#" xmlns:dc="http://purl.org/dc/elements/1.1/"><rdf:Description><dc:creator>RealFaviconGenerator</dc:creator><dc:source>https://realfavicongenerator.net</dc:source></rdf:Description></rdf:RDF></metadata><style>
    #light-icon {
      display: inline;
    }
    #dark-icon {
      display: none;
    }

    @media (prefers-color-scheme: dark) {
      #light-icon {
        display: none;
      }
      #dark-icon {
        display: inline;
      }
    }
  </style><g id="light-icon"><svg xmlns="http://www.w3.org/2000/svg" version="1.1" xmlns:xlink="http://www.w3.org/1999/xlink" width="1000" height="1000"><g clip-path="url(#SvgjsClipPath1128)"><rect width="1000" height="1000" fill="#ffffff"></rect><g transform="matrix(2.5,0,0,2.5,0,0)"><svg xmlns="http://www.w3.org/2000/svg" width="400" height="400" viewBox="0 0 400 400" fill="none"><rect width="400" height="400" fill="#101722"></rect><path d="M149.11 106H100.712L176.157 199.079L100 295H146.263L199.644 228.211L253.025 295H300L149.11 106Z" fill="#FFFDED"></path><path d="M298.577 106H250.178L218.861 145.789L242.349 175.632L298.577 106Z" fill="#395AFC"></path></svg></g></g><defs><clipPath id="SvgjsClipPath1128"><rect width="1000" height="1000" x="0" y="0" rx="250" ry="250"></rect></clipPath></defs></svg></g><g id="dark-icon"><svg xmlns="http://www.w3.org/2000/svg" version="1.1" xmlns:xlink="http://www.w3.org/1999/xlink" width="1000" height="1000"><g clip-path="url(#SvgjsClipPath1129)"><rect width="1000" height="1000" fill="#ffffff"></rect><g transform="matrix(2.5,0,0,2.5,0,0)"><svg xmlns="http://www.w3.org/2000/svg" width="400" height="400" viewBox="0 0 400 400" fill="none"><rect width="400" height="400" fill="#FFFDED"></rect><path d="M149.11 106H100.712L176.157 199.079L100 295H146.263L199.644 228.211L253.025 295H300L149.11 106Z" fill="#101722"></path><path d="M298.577 106H250.178L218.861 145.789L242.349 175.632L298.577 106Z" fill="#395AFC"></path></svg></g></g><defs><clipPath id="SvgjsClipPath1129"><rect width="1000" height="1000" x="0" y="0" rx="250" ry="250"></rect></clipPath></defs></svg></g></svg>