<svg width="1536" height="1024" viewBox="0 0 1536 1024" fill="none" xmlns="http://www.w3.org/2000/svg">
<rect width="1536" height="1024" fill="#FFFDED"/>
<path d="M966 446H932L985 511.5L931.5 579H964L1001.5 532L1039 579H1072L966 446Z" fill="#101722"/>
<path d="M1071 446H1037L1015 474L1031.5 495L1071 446Z" fill="#395AFC"/>
<path d="M877 446H905V579H877V446Z" fill="#101722"/>
<path d="M877 392H905V422H877V392Z" fill="#101722"/>
<path fill-rule="evenodd" clip-rule="evenodd" d="M767.5 444C783.669 444 797.788 448.477 809 456.248V446H837V569C837 592.673 826.564 612.164 809.28 623.68L809 624V623.867C798.193 630.983 784.738 635 769.5 635C738.798 635 716.522 620.698 707 594.959V594H738.365C745.468 603.694 756.23 609.847 769.5 610C789.668 610.233 805.349 596.908 809 577.653V568.885C797.734 576.62 783.582 581 767.5 581C726.476 581 698 552 698 512.5C698 473 725.993 444 767.5 444ZM767.5 469C743.904 469.275 725.725 488.056 726 512.5C726.272 536.661 744.178 554.729 767.5 555C791.092 555.275 808.725 537.44 809 513C809.278 488.28 791.362 468.722 767.5 469Z" fill="#101722"/>
<path d="M671 512.5C671 552.5 641.5 581 599 581C556.5 581 527 552 527 512.5C527 473 556 444 599 444C642 444 671 473.5 671 512.5ZM555 512.5C555.281 536.661 574.839 555.729 599 556C623.441 556.275 643.715 536.94 644 512.5C644.288 487.78 623.72 467.697 599 467.975C574.556 468.25 554.715 488.056 555 512.5Z" fill="#101722"/>
<path d="M464 390H492V579H464V390Z" fill="#101722"/>
</svg>
