<svg width="608" height="245" viewBox="0 0 608 245" fill="none" xmlns="http://www.w3.org/2000/svg">
<path d="M502 56H468L521 121.5L467.5 189H500L537.5 142L575 189H608L502 56Z" fill="#FFFDED"/>
<path d="M607 56H573L551 84L567.5 105L607 56Z" fill="#395AFC"/>
<path d="M413 56H441V189H413V56Z" fill="#FFFDED"/>
<path d="M413 2H441V32H413V2Z" fill="#FFFDED"/>
<path fill-rule="evenodd" clip-rule="evenodd" d="M303.5 54C319.669 54 333.788 58.4767 345 66.248V56H373V179C373 202.673 362.564 222.164 345.28 233.68L345 234V233.867C334.193 240.983 320.738 245 305.5 245C274.798 245 252.522 230.698 243 204.959V204H274.365C281.468 213.694 292.23 219.847 305.5 220C325.668 220.233 341.349 206.908 345 187.653V178.885C333.734 186.62 319.582 191 303.5 191C262.476 191 234 162 234 122.5C234 83 261.993 54 303.5 54ZM303.5 79C279.904 79.2747 261.725 98.0557 262 122.5C262.272 146.661 280.178 164.729 303.5 165C327.092 165.275 344.725 147.44 345 123C345.278 98.2797 327.362 78.7222 303.5 79Z" fill="#FFFDED"/>
<path d="M207 122.5C207 162.5 177.5 191 135 191C92.5 191 63 162 63 122.5C63 83 92 54 135 54C178 54 207 83.5 207 122.5ZM91 122.5C91.2814 146.661 110.839 165.729 135 166C159.441 166.275 179.715 146.94 180 122.5C180.288 97.7797 159.72 77.6972 135 77.975C110.556 78.2497 90.7153 98.0557 91 122.5Z" fill="#FFFDED"/>
<path d="M0 0H28V189H0V0Z" fill="#FFFDED"/>
</svg>
